<svg xmlns="http://www.w3.org/2000/svg" viewBox="0 0 24 24" width="64" height="64" role="img" aria-label="PromptStream">
  <style>
    .wave { 
      stroke: #0c0a09; 
    }
    @media (prefers-color-scheme: dark) {
      .wave { 
        stroke: #ffffff; 
      }
    }
  </style>
  <g fill="none" stroke-width="2" stroke-linecap="round" stroke-linejoin="round">
    <path class="wave" d="M2 6c.6.5 1.2 1 2.5 1C7 7 7 5 9.5 5c2.6 0 2.4 2 5 2 2.5 0 2.5-2 5-2 1.3 0 1.9.5 2.5 1" />
    <path class="wave" d="M2 12c.6.5 1.2 1 2.5 1 2.5 0 2.5-2 5-2 2.6 0 2.4 2 5 2 2.5 0 2.5-2 5-2 1.3 0 1.9.5 2.5 1" />
    <path class="wave" d="M2 18c.6.5 1.2 1 2.5 1 2.5 0 2.5-2 5-2 2.6 0 2.4 2 5 2 2.5 0 2.5-2 5-2 1.3 0 1.9.5 2.5 1" />
  </g>
</svg>